# Blender3D v249 OBJ File: 
# www.blender3d.org
v -42.906998 30.045099 -21.405901
v -42.906998 30.131701 -21.421600
v -43.323601 30.131798 -21.800501
v -43.740299 30.045399 -22.170101
v -43.740299 30.131998 -22.179602
v -44.157001 30.132099 -22.558701
v -44.573700 30.045597 -22.934902
v -44.573700 30.132299 -22.938101
v -44.990398 30.132401 -23.317402
v 42.426403 30.045099 -21.405901
v 42.426403 30.131701 -21.421600
v 42.842999 30.131798 -21.800501
v 43.259701 30.045399 -22.170101
v 43.259701 30.131998 -22.179501
v 43.676399 30.132099 -22.558701
v 44.093002 30.045597 -22.934902
v 44.093002 30.132299 -22.938101
v 44.509701 30.132401 -23.317402
v 42.426403 30.045103 26.271000
v 42.426403 30.131702 26.286797
v 42.842999 30.131800 26.665699
v 43.259701 30.045401 27.035200
v 43.259701 30.132000 27.044697
v 43.676399 30.132101 27.423798
v 44.093002 30.045601 27.799999
v 44.093002 30.132301 27.803200
v 44.509701 30.132402 28.182598
v -42.906998 30.045103 26.271000
v -42.906998 30.131702 26.286797
v -43.323601 30.131800 26.665699
v -43.740299 30.045401 27.035200
v -43.740299 30.132000 27.044697
v -44.157001 30.132101 27.423798
v -44.573601 30.045601 27.799999
v -44.573601 30.132301 27.803200
v -44.990303 30.132402 28.182598
v 47.987301 30.027403 24.682598
v 47.987301 30.112402 24.682598
v 47.613701 30.112602 24.237299
v 47.233601 30.027700 23.792099
v 47.239799 30.112700 23.792099
v 46.865902 30.112801 23.346899
v 46.479301 30.027901 22.901699
v 46.491798 30.113001 22.901699
v 46.117500 30.113102 22.456499
v 46.098103 30.039297 -17.734100
v 46.113899 30.125799 -17.734100
v 46.492802 30.125999 -18.150803
v 46.862400 30.039501 -18.567402
v 46.871799 30.126101 -18.567402
v 47.250999 30.126198 -18.984102
v 47.627197 30.039700 -19.400801
v 47.630302 30.126398 -19.400801
v 48.009701 30.126499 -19.817402
v -48.490299 30.027403 24.682598
v -48.490299 30.112402 24.682598
v -48.116699 30.112602 24.237299
v -47.736599 30.027700 23.792099
v -47.742798 30.112700 23.792099
v -47.368900 30.112801 23.346899
v -46.982399 30.027901 22.901699
v -46.994801 30.113001 22.901699
v -46.620499 30.113102 22.456499
v -46.601200 30.039297 -17.734100
v -46.616901 30.125799 -17.734100
v -46.995800 30.125999 -18.150803
v -47.365398 30.039501 -18.567402
v -47.374802 30.126101 -18.567402
v -47.753998 30.126198 -18.984102
v -48.130199 30.039700 -19.400801
v -48.133400 30.126398 -19.400801
v -48.512699 30.126499 -19.817402
v -2.490300 30.033298 -23.295101
v -2.490300 30.118298 -23.295101
v -2.573600 30.118298 -22.923302
v -2.657000 30.033400 -22.545101
v -2.657000 30.118399 -22.551300
v -2.740300 30.118399 -22.179401
v -2.823600 30.033400 -21.794901
v -2.823600 30.118399 -21.807301
v -2.906900 30.118399 -21.435301
v 2.009700 30.033298 -23.295101
v 2.009700 30.118298 -23.295101
v 2.093000 30.118298 -22.923302
v 2.176300 30.033400 -22.545101
v 2.176300 30.118399 -22.551300
v 2.259700 30.118399 -22.179401
v 2.343000 30.033400 -21.794901
v 2.343000 30.118399 -21.807301
v 2.426300 30.118500 -21.435301
v 2.009700 30.033300 28.160198
v 2.009700 30.118299 28.160198
v 2.093000 30.118299 27.788399
v 2.176300 30.033401 27.410297
v 2.176300 30.118401 27.416397
v 2.259700 30.118401 27.044498
v 2.343000 30.033401 26.660099
v 2.343000 30.118401 26.672398
v 2.426300 30.118502 26.300497
v -2.490300 30.033300 28.160198
v -2.490300 30.118299 28.160198
v -2.573600 30.118299 27.788399
v -2.656900 30.033401 27.410297
v -2.656900 30.118401 27.416397
v -2.740300 30.118401 27.044498
v -2.823600 30.033401 26.660099
v -2.823600 30.118401 26.672398
v -2.906900 30.118502 26.300497
vt -0.438123 1.456781
vt -0.438123 1.459316
vt -0.447277 1.459318
vt -0.456430 1.456788
vt -0.456430 1.459325
vt -0.465586 1.459327
vt -0.474739 1.456795
vt -0.474739 1.459334
vt -0.483895 1.459337
vt 1.445765 1.459318
vt 1.436612 1.459316
vt 1.436612 1.456781
vt 1.464077 1.459327
vt 1.454921 1.459325
vt 1.454921 1.456788
vt 1.482381 1.459337
vt 1.473228 1.459334
vt 1.473228 1.456795
vt -0.483893 1.459337
vt -0.474737 1.459334
vt -0.474737 1.456795
vt -0.037741 1.456261
vt -0.037741 1.458751
vt -0.027957 1.458756
vt -0.018178 1.456270
vt -0.018178 1.458760
vt -0.008397 1.458763
vt 0.001384 1.456277
vt 0.001384 1.458770
vt 0.011165 1.458772
vt 0.894135 1.456609
vt 0.894135 1.459144
vt 0.903289 1.459149
vt 0.912442 1.456614
vt 0.912442 1.459152
vt 0.921595 1.459156
vt 0.930751 1.456621
vt 0.930751 1.459161
vt 0.939905 1.459163
vt 1.016306 1.456434
vt 1.016306 1.458924
vt 1.008139 1.458924
vt 0.999829 1.456436
vt 0.999965 1.458927
vt 0.991796 1.458927
vt 0.983347 1.456436
vt 0.983621 1.458927
vt 0.975447 1.458927
vt 0.975447 1.458929
vt -0.114142 1.456434
vt -0.114142 1.458924
vt -0.105975 1.458924
vt -0.097668 1.456436
vt -0.097801 1.458927
vt -0.089632 1.458927
vt -0.081186 1.456436
vt -0.081455 1.458927
vt -0.073286 1.458929
vt 0.000000 0.000000
vt 1.000000 1.000000
vt 1.000000 0.000000
vn -0.666851 0.132924 0.733240
vn -0.670728 0.080884 0.737280
vn -0.672889 0.027272 0.739240
vn 0.666858 0.132923 0.733234
vn 0.670876 0.080019 0.737239
vn 0.672889 0.027272 0.739240
vn 0.666786 0.133735 -0.733152
vn 0.670735 0.080852 -0.737277
vn 0.672983 0.027286 -0.739154
vn -0.666779 0.133736 -0.733158
vn -0.670732 0.080852 -0.737280
vn -0.672980 0.027286 -0.739157
vn -0.766087 0.000000 0.642737
vn -0.764567 0.055759 0.642128
vn -0.760623 0.111697 0.639513
vn -0.733237 0.133901 -0.666659
vn -0.737241 0.080019 -0.670875
vn -0.739092 0.026471 -0.673084
vn 0.766087 0.000000 0.642737
vn 0.764567 0.055759 0.642128
vn 0.760692 0.110855 0.639577
vn 0.733319 0.133107 -0.666728
vn 0.737242 0.080052 -0.670869
vn 0.739164 0.027287 -0.672973
vn 0.975809 0.000000 0.218626
vn 0.975697 0.015938 0.218543
vn 0.975338 0.031861 0.218403
vn -0.975809 0.000000 0.218625
vn -0.975641 0.015956 0.218792
vn -0.975340 0.031859 0.218395
vn -0.975809 0.000000 -0.218625
vn -0.975645 0.015701 -0.218793
vn -0.975336 0.031608 -0.218452
vn 0.975809 0.000000 -0.218626
vn 0.975645 0.015701 -0.218794
vn 0.975336 0.031608 -0.218452
vn -0.739258 0.026477 -0.672902
vn -0.737337 0.080030 -0.670767
vn 0.670667 0.080040 0.737427
vn 0.673066 0.027266 0.739079
vn -0.764564 0.055759 0.642132
vn -0.760773 0.111719 0.639331
vn 0.673068 0.027283 -0.739077
vn 0.670621 0.080863 -0.737380
vn -0.975715 0.015679 -0.218482
vn -0.975359 0.031593 -0.218348
vn 0.975359 0.031593 -0.218348
vn 0.975715 0.015679 -0.218481
vn 0.764564 0.055759 0.642132
vn 0.760848 0.110878 0.639387
vn -0.670624 0.080862 -0.737377
vn -0.673071 0.027283 -0.739074
vn 0.737332 0.080062 -0.670769
vn 0.739154 0.027286 -0.672983
vn -0.672982 0.027269 0.739156
vn -0.670723 0.080885 0.737285
vn 0.975352 0.031852 0.218346
vn 0.975655 0.015952 0.218730
vn -0.975352 0.031852 0.218346
vn -0.975711 0.015934 0.218481
usemtl (null)
s off
f 1/1/1 2/2/1 3/3/1
f 4/4/2 5/5/2 6/6/2
f 7/7/3 8/8/3 9/9/3
f 12/10/4 11/11/4 10/12/4
f 15/13/5 14/14/5 13/15/5
f 18/16/6 17/17/6 16/18/6
f 19/12/7 20/11/7 21/10/7
f 22/15/8 23/14/8 24/13/8
f 25/18/9 26/17/9 27/16/9
f 30/3/10 29/2/10 28/1/10
f 33/6/11 32/5/11 31/4/11
f 36/19/12 35/20/12 34/21/12
f 37/22/13 38/23/13 39/24/13
f 40/25/14 41/26/14 42/27/14
f 43/28/15 44/29/15 45/30/15
f 46/31/16 47/32/16 48/33/16
f 49/34/17 50/35/17 51/36/17
f 52/37/18 53/38/18 54/39/18
f 57/24/19 56/23/19 55/22/19
f 60/27/20 59/26/20 58/25/20
f 63/30/21 62/29/21 61/28/21
f 66/33/22 65/32/22 64/31/22
f 69/36/23 68/35/23 67/34/23
f 72/39/24 71/38/24 70/37/24
f 73/40/25 74/41/25 75/42/25
f 76/43/26 77/44/26 78/45/26
f 79/46/27 80/47/27 81/48/27
f 84/42/28 83/41/28 82/40/28
f 87/45/29 86/44/29 85/43/29
f 90/49/30 89/47/30 88/46/30
f 91/50/31 92/51/31 93/52/31
f 94/53/32 95/54/32 96/55/32
f 97/56/33 98/57/33 99/58/33
f 102/52/34 101/51/34 100/50/34
f 105/55/35 104/54/35 103/53/35
f 108/58/36 107/57/36 106/56/36
usemtl (null)
f 51/59/37 53/60/37 52/61/37
f 48/59/38 50/60/38 49/61/38
f 12/59/39 13/61/39 14/60/39
f 15/59/40 16/61/40 17/60/40
f 39/59/41 41/60/41 40/61/41
f 42/59/42 44/60/42 43/61/42
f 24/59/43 26/60/43 25/61/43
f 21/59/44 23/60/44 22/61/44
f 93/59/45 95/60/45 94/61/45
f 96/59/46 98/60/46 97/61/46
f 105/59/47 106/61/47 107/60/47
f 102/59/48 103/61/48 104/60/48
f 57/59/49 58/61/49 59/60/49
f 60/59/50 61/61/50 62/60/50
f 30/59/51 31/61/51 32/60/51
f 33/59/52 34/61/52 35/60/52
f 66/59/53 67/61/53 68/60/53
f 69/59/54 70/61/54 71/60/54
f 6/59/55 8/60/55 7/61/55
f 3/59/56 5/60/56 4/61/56
f 78/59/57 80/60/57 79/61/57
f 75/59/58 77/60/58 76/61/58
f 87/59/59 88/61/59 89/60/59
f 84/59/60 85/61/60 86/60/60
