# Blender3D v249 OBJ File: 
# www.blender3d.org
v -42.906998 30.045099 -21.405901
v -42.906998 30.131701 -21.421600
v -43.323601 30.131798 -21.800501
v -43.740299 30.045399 -22.170101
v -43.740299 30.131998 -22.179602
v -44.157001 30.132099 -22.558701
v -44.573700 30.045597 -22.934902
v -44.573700 30.132299 -22.938101
v -44.990398 30.132401 -23.317402
v 42.426403 30.045099 -21.405901
v 42.426403 30.131701 -21.421600
v 42.842999 30.131798 -21.800501
v 43.259701 30.045399 -22.170101
v 43.259701 30.131998 -22.179501
v 43.676399 30.132099 -22.558701
v 44.093002 30.045597 -22.934902
v 44.093002 30.132299 -22.938101
v 44.509701 30.132401 -23.317402
v 42.426403 30.045103 26.271000
v 42.426403 30.131702 26.286797
v 42.842999 30.131800 26.665699
v 43.259701 30.045401 27.035200
v 43.259701 30.132000 27.044697
v 43.676399 30.132101 27.423798
v 44.093002 30.045601 27.799999
v 44.093002 30.132301 27.803200
v 44.509701 30.132402 28.182598
v -42.906998 30.045103 26.271000
v -42.906998 30.131702 26.286797
v -43.323601 30.131800 26.665699
v -43.740299 30.045401 27.035200
v -43.740299 30.132000 27.044697
v -44.157001 30.132101 27.423798
v -44.573601 30.045601 27.799999
v -44.573601 30.132301 27.803200
v -44.990303 30.132402 28.182598
v 47.987301 30.027403 24.682598
v 47.987301 30.112402 24.682598
v 47.613701 30.112602 24.237299
v 47.233601 30.027700 23.792099
v 47.239799 30.112700 23.792099
v 46.865902 30.112801 23.346899
v 46.479301 30.027901 22.901699
v 46.491798 30.113001 22.901699
v 46.117500 30.113102 22.456499
v 46.098103 30.039297 -17.734100
v 46.113899 30.125799 -17.734100
v 46.492802 30.125999 -18.150803
v 46.862400 30.039501 -18.567402
v 46.871799 30.126101 -18.567402
v 47.250999 30.126198 -18.984102
v 47.627197 30.039700 -19.400801
v 47.630302 30.126398 -19.400801
v 48.009701 30.126499 -19.817402
v -48.490299 30.027403 24.682598
v -48.490299 30.112402 24.682598
v -48.116699 30.112602 24.237299
v -47.736599 30.027700 23.792099
v -47.742798 30.112700 23.792099
v -47.368900 30.112801 23.346899
v -46.982399 30.027901 22.901699
v -46.994801 30.113001 22.901699
v -46.620499 30.113102 22.456499
v -46.601200 30.039297 -17.734100
v -46.616901 30.125799 -17.734100
v -46.995800 30.125999 -18.150803
v -47.365398 30.039501 -18.567402
v -47.374802 30.126101 -18.567402
v -47.753998 30.126198 -18.984102
v -48.130199 30.039700 -19.400801
v -48.133400 30.126398 -19.400801
v -48.512699 30.126499 -19.817402
v -2.490300 30.033298 -23.295101
v -2.490300 30.118298 -23.295101
v -2.573600 30.118298 -22.923302
v -2.657000 30.033400 -22.545101
v -2.657000 30.118399 -22.551300
v -2.740300 30.118399 -22.179401
v -2.823600 30.033400 -21.794901
v -2.823600 30.118399 -21.807301
v -2.906900 30.118399 -21.435301
v 2.009700 30.033298 -23.295101
v 2.009700 30.118298 -23.295101
v 2.093000 30.118298 -22.923302
v 2.176300 30.033400 -22.545101
v 2.176300 30.118399 -22.551300
v 2.259700 30.118399 -22.179401
v 2.343000 30.033400 -21.794901
v 2.343000 30.118399 -21.807301
v 2.426300 30.118500 -21.435301
v 2.009700 30.033300 28.160198
v 2.009700 30.118299 28.160198
v 2.093000 30.118299 27.788399
v 2.176300 30.033401 27.410297
v 2.176300 30.118401 27.416397
v 2.259700 30.118401 27.044498
v 2.343000 30.033401 26.660099
v 2.343000 30.118401 26.672398
v 2.426300 30.118502 26.300497
v -2.490300 30.033300 28.160198
v -2.490300 30.118299 28.160198
v -2.573600 30.118299 27.788399
v -2.656900 30.033401 27.410297
v -2.656900 30.118401 27.416397
v -2.740300 30.118401 27.044498
v -2.823600 30.033401 26.660099
v -2.823600 30.118401 26.672398
v -2.906900 30.118502 26.300497
v -42.906998 30.088400 -21.413752
v -43.115299 30.131750 -21.611052
v -43.115299 30.088448 -21.603201
v -43.740299 30.088697 -22.174852
v -43.948650 30.132048 -22.369150
v -43.948650 30.088749 -22.364401
v -44.573700 30.088947 -22.936501
v -44.782047 30.132349 -23.127750
v -44.782047 30.088999 -23.126150
v 42.634701 30.131750 -21.611052
v 42.426403 30.088400 -21.413752
v 42.634701 30.088448 -21.603201
v 43.468052 30.132048 -22.369101
v 43.259701 30.088697 -22.174801
v 43.468052 30.088749 -22.364401
v 44.301350 30.132349 -23.127750
v 44.093002 30.088947 -22.936501
v 44.301350 30.088999 -23.126150
v 42.426403 30.088402 26.278900
v 42.634701 30.131752 26.476248
v 42.634701 30.088449 26.468348
v 43.259701 30.088699 27.039949
v 43.468052 30.132050 27.234249
v 43.468052 30.088751 27.229498
v 44.093002 30.088951 27.801600
v 44.301350 30.132351 27.992897
v 44.301350 30.089001 27.991299
v -43.115299 30.131752 26.476248
v -42.906998 30.088402 26.278900
v -43.115299 30.088449 26.468348
v -43.948650 30.132050 27.234249
v -43.740299 30.088699 27.039949
v -43.948650 30.088751 27.229498
v -44.781952 30.132351 27.992897
v -44.573601 30.088951 27.801600
v -44.781952 30.089001 27.991299
v 47.987301 30.069901 24.682598
v 47.800499 30.112499 24.459948
v 47.800499 30.070002 24.459948
v 47.236698 30.070198 23.792099
v 47.052853 30.112751 23.569500
v 47.049747 30.070251 23.569500
v 46.485550 30.070450 22.901699
v 46.304649 30.113050 22.679098
v 46.298401 30.070503 22.679098
v 46.105999 30.082546 -17.734100
v 46.303349 30.125896 -17.942451
v 46.295452 30.082647 -17.942451
v 46.867100 30.082800 -18.567402
v 47.061401 30.126148 -18.775751
v 47.056698 30.082851 -18.775751
v 47.628750 30.083048 -19.400801
v 47.820004 30.126448 -19.609100
v 47.818451 30.083101 -19.609100
v -48.303501 30.112499 24.459948
v -48.490299 30.069901 24.682598
v -48.303501 30.070002 24.459948
v -47.555847 30.112751 23.569500
v -47.739700 30.070198 23.792099
v -47.552750 30.070251 23.569500
v -46.807652 30.113050 22.679098
v -46.988602 30.070450 22.901699
v -46.801449 30.070503 22.679098
v -46.806351 30.125896 -17.942451
v -46.609051 30.082546 -17.734100
v -46.798500 30.082647 -17.942451
v -47.564400 30.126148 -18.775751
v -47.370102 30.082800 -18.567402
v -47.559700 30.082851 -18.775751
v -48.323051 30.126448 -19.609100
v -48.131798 30.083048 -19.400801
v -48.321449 30.083101 -19.609100
v -2.490300 30.075800 -23.295101
v -2.531950 30.118298 -23.109201
v -2.531950 30.075800 -23.109201
v -2.615300 30.118349 -22.737301
v -2.657000 30.075901 -22.548201
v -2.698650 30.118399 -22.365351
v -2.698650 30.075901 -22.362251
v -2.781950 30.118399 -21.993351
v -2.823600 30.075901 -21.801100
v -2.865250 30.118399 -21.621300
v -2.865250 30.075901 -21.615101
v 2.051350 30.118298 -23.109201
v 2.009700 30.075800 -23.295101
v 2.051350 30.075800 -23.109201
v 2.134650 30.118349 -22.737301
v 2.176300 30.075901 -22.548201
v 2.218000 30.118399 -22.365351
v 2.218000 30.075901 -22.362251
v 2.301350 30.118399 -21.993351
v 2.343000 30.075901 -21.801100
v 2.384650 30.118450 -21.621300
v 2.384650 30.075949 -21.615101
v 2.009700 30.075802 28.160198
v 2.051350 30.118299 27.974300
v 2.051350 30.075802 27.974300
v 2.134650 30.118351 27.602398
v 2.176300 30.075903 27.413349
v 2.218000 30.118401 27.230446
v 2.218000 30.075903 27.227398
v 2.301350 30.118401 26.858448
v 2.343000 30.075903 26.666246
v 2.384650 30.118452 26.486448
v 2.384650 30.075951 26.480297
v -2.531950 30.118299 27.974300
v -2.490300 30.075802 28.160198
v -2.531950 30.075802 27.974300
v -2.615250 30.118351 27.602398
v -2.656900 30.075903 27.413349
v -2.698600 30.118401 27.230446
v -2.698600 30.075903 27.227398
v -2.781950 30.118401 26.858448
v -2.823600 30.075903 26.666246
v -2.865250 30.118452 26.486448
v -2.865250 30.075951 26.480297
v 43.051350 30.131899 -21.990002
v 43.884701 30.132196 -22.748400
v 47.440651 30.126297 -19.192451
v 46.682297 30.126049 -18.359102
v 47.439098 30.082949 -19.192451
v 46.677601 30.082750 -18.359102
v 43.051350 30.088596 -21.985302
v 43.884701 30.088846 -22.746801
v 47.423649 30.070150 24.014698
v 47.426750 30.112650 24.014698
v 46.672600 30.070351 23.124298
v 46.678848 30.112900 23.124298
v 43.884701 30.088850 27.611898
v 43.884701 30.132200 27.613499
v 43.051350 30.088598 26.850449
v 43.051350 30.131901 26.855200
v 2.134650 30.075850 27.599348
v 2.301350 30.075903 26.852297
v -2.781950 30.075903 26.852297
v -2.615250 30.075850 27.599348
v -47.926651 30.070150 24.014698
v -47.929749 30.112650 24.014698
v -47.175648 30.070351 23.124298
v -47.181850 30.112900 23.124298
v -43.531948 30.088598 26.850449
v -43.531948 30.131901 26.855200
v -44.365299 30.088850 27.611898
v -44.365299 30.132200 27.613499
v -47.180599 30.082750 -18.359102
v -47.185303 30.126049 -18.359102
v -47.942101 30.082949 -19.192451
v -47.943699 30.126297 -19.192451
v -44.365353 30.088846 -22.746801
v -44.365353 30.132196 -22.748400
v -43.531948 30.088596 -21.985302
v -43.531948 30.131899 -21.990051
v -2.781950 30.075901 -21.987150
v -2.615300 30.075848 -22.734201
v 2.301350 30.075901 -21.987150
v 2.134650 30.075848 -22.734201
vn -0.666848 0.132941 0.733240
vn -0.666848 0.132935 0.733240
vn -0.666854 0.132908 0.733240
vn -0.670725 0.080902 0.737281
vn -0.670727 0.080870 0.737283
vn -0.670730 0.080870 0.737279
vn -0.670727 0.080867 0.737283
vn -0.672891 0.027256 0.739239
vn -0.672890 0.027289 0.739239
vn -0.672887 0.027289 0.739241
vn -0.672891 0.027288 0.739239
vn 0.666855 0.132934 0.733234
vn 0.666855 0.132939 0.733234
vn 0.666861 0.132907 0.733234
vn 0.670879 0.080021 0.737236
vn 0.670873 0.080021 0.737243
vn 0.670873 0.080018 0.737242
vn 0.672887 0.027289 0.739241
vn 0.672890 0.027289 0.739239
vn 0.672891 0.027256 0.739239
vn 0.672891 0.027288 0.739239
vn 0.666776 0.133771 -0.733155
vn 0.666777 0.133759 -0.733156
vn 0.666784 0.133758 -0.733149
vn 0.666789 0.133700 -0.733155
vn 0.670727 0.080870 -0.737283
vn 0.670725 0.080902 -0.737281
vn 0.670732 0.080902 -0.737275
vn 0.670736 0.080834 -0.737278
vn 0.672987 0.027286 -0.739151
vn 0.672987 0.027253 -0.739152
vn 0.672984 0.027253 -0.739155
vn 0.672983 0.027286 -0.739154
vn -0.666777 0.133759 -0.733155
vn -0.666770 0.133760 -0.733162
vn -0.666769 0.133772 -0.733161
vn -0.666782 0.133701 -0.733162
vn -0.670725 0.080902 -0.737281
vn -0.670727 0.080870 -0.737283
vn -0.670736 0.080834 -0.737278
vn -0.672984 0.027253 -0.739155
vn -0.672981 0.027253 -0.739158
vn -0.672980 0.027286 -0.739157
vn -0.672976 0.027286 -0.739161
vn -0.766085 0.000000 0.642739
vn -0.766089 0.000000 0.642735
vn -0.764563 0.055727 0.642135
vn -0.764558 0.055861 0.642130
vn -0.764561 0.055861 0.642126
vn -0.764567 0.055791 0.642125
vn -0.760623 0.111700 0.639512
vn -0.760623 0.111705 0.639511
vn -0.760621 0.111705 0.639514
vn -0.760625 0.111695 0.639511
vn -0.733236 0.133874 -0.666665
vn -0.733237 0.133874 -0.666664
vn -0.733237 0.133927 -0.666654
vn -0.737243 0.080021 -0.670872
vn -0.737239 0.080089 -0.670869
vn -0.737242 0.080090 -0.670866
vn -0.737236 0.080017 -0.670881
vn -0.739087 0.026471 -0.673089
vn -0.739087 0.026473 -0.673089
vn -0.739097 0.026473 -0.673079
vn -0.739087 0.026470 -0.673090
vn 0.766083 0.000000 0.642742
vn 0.766092 0.000000 0.642731
vn 0.764573 0.055725 0.642124
vn 0.764564 0.055724 0.642135
vn 0.764560 0.055795 0.642133
vn 0.764564 0.055722 0.642135
vn 0.760684 0.110895 0.639580
vn 0.760686 0.110896 0.639577
vn 0.760686 0.110891 0.639578
vn 0.760700 0.110820 0.639574
vn 0.733319 0.133113 -0.666726
vn 0.733319 0.133113 -0.666727
vn 0.733319 0.133101 -0.666729
vn 0.737245 0.080025 -0.670869
vn 0.737243 0.080025 -0.670872
vn 0.737239 0.080086 -0.670869
vn 0.737242 0.080018 -0.670873
vn 0.739168 0.027321 -0.672967
vn 0.739158 0.027321 -0.672978
vn 0.739159 0.027255 -0.672979
vn 0.739158 0.027318 -0.672978
vn 0.975809 0.000000 0.218626
vn 0.975697 0.015937 0.218543
vn 0.975697 0.015939 0.218543
vn 0.975338 0.031854 0.218404
vn 0.975338 0.031857 0.218404
vn 0.975339 0.031867 0.218402
vn -0.975809 0.000000 0.218625
vn -0.975809 0.000000 0.218626
vn -0.975641 0.015957 0.218793
vn -0.975641 0.015957 0.218791
vn -0.975641 0.015955 0.218791
vn -0.975340 0.031853 0.218396
vn -0.975340 0.031866 0.218393
vn -0.975808 0.000000 -0.218628
vn -0.975810 0.000000 -0.218623
vn -0.975645 0.015710 -0.218790
vn -0.975646 0.015692 -0.218790
vn -0.975645 0.015692 -0.218796
vn -0.975336 0.031597 -0.218453
vn -0.975335 0.031617 -0.218453
vn -0.975336 0.031616 -0.218451
vn -0.975335 0.031619 -0.218453
vn 0.975809 0.000000 -0.218624
vn 0.975808 0.000000 -0.218628
vn 0.975644 0.015692 -0.218797
vn 0.975646 0.015692 -0.218790
vn 0.975645 0.015710 -0.218790
vn 0.975336 0.031616 -0.218451
vn 0.975335 0.031617 -0.218453
vn 0.975336 0.031597 -0.218453
vn 0.975335 0.031619 -0.218453
vn -0.739257 0.026478 -0.672902
vn -0.739258 0.026476 -0.672902
vn -0.737348 0.079968 -0.670763
vn -0.737341 0.079967 -0.670771
vn -0.737337 0.080032 -0.670767
vn -0.737331 0.080027 -0.670775
vn 0.670669 0.080034 0.737426
vn 0.670666 0.080035 0.737429
vn 0.670666 0.080038 0.737429
vn 0.670665 0.080042 0.737429
vn 0.673065 0.027251 0.739081
vn 0.673065 0.027251 0.739082
vn 0.673068 0.027282 0.739078
vn -0.764564 0.055793 0.642129
vn -0.764561 0.055793 0.642132
vn -0.764564 0.055727 0.642134
vn -0.764561 0.055790 0.642132
vn -0.760771 0.111722 0.639333
vn -0.760774 0.111722 0.639328
vn -0.760774 0.111717 0.639329
vn 0.673068 0.027283 -0.739077
vn 0.670622 0.080906 -0.737374
vn 0.670623 0.080880 -0.737376
vn 0.670618 0.080845 -0.737384
vn -0.975715 0.015678 -0.218482
vn -0.975715 0.015678 -0.218484
vn -0.975715 0.015688 -0.218484
vn -0.975715 0.015670 -0.218482
vn -0.975359 0.031604 -0.218347
vn -0.975359 0.031604 -0.218348
vn -0.975360 0.031582 -0.218348
vn 0.975359 0.031604 -0.218347
vn 0.975359 0.031604 -0.218348
vn 0.975360 0.031582 -0.218348
vn 0.975715 0.015678 -0.218481
vn 0.975715 0.015678 -0.218484
vn 0.975715 0.015670 -0.218482
vn 0.975715 0.015688 -0.218484
vn 0.764567 0.055725 0.642131
vn 0.764564 0.055724 0.642134
vn 0.764561 0.055795 0.642132
vn 0.760847 0.110914 0.639383
vn 0.760850 0.110915 0.639378
vn 0.760850 0.110841 0.639392
vn -0.670629 0.080905 -0.737368
vn -0.670622 0.080906 -0.737374
vn -0.670618 0.080845 -0.737384
vn -0.670623 0.080880 -0.737376
vn -0.673075 0.027283 -0.739071
vn -0.673068 0.027283 -0.739077
vn 0.737327 0.080095 -0.670771
vn 0.737338 0.080028 -0.670767
vn 0.739155 0.027254 -0.672984
vn 0.739161 0.027255 -0.672977
vn 0.739153 0.027318 -0.672983
vn -0.672977 0.027253 0.739161
vn -0.672984 0.027253 0.739155
vn -0.672987 0.027284 0.739151
vn -0.670727 0.080863 0.737283
vn -0.670720 0.080864 0.737289
vn -0.670718 0.080903 0.737287
vn -0.670720 0.080867 0.737289
vn 0.975351 0.031859 0.218345
vn 0.975351 0.031859 0.218346
vn 0.975352 0.031846 0.218346
vn 0.975655 0.015951 0.218730
vn 0.975655 0.015951 0.218731
vn 0.975655 0.015953 0.218731
vn -0.975351 0.031859 0.218345
vn -0.975351 0.031859 0.218346
vn -0.975352 0.031846 0.218346
vn -0.975711 0.015933 0.218481
vn -0.975711 0.015934 0.218481
usemtl (null)
s off
f 111//1 1//1 109//1
f 109//2 110//2 111//2
f 3//2 111//2 110//2
f 110//3 109//3 2//3
f 114//4 4//4 112//4
f 112//5 113//5 114//5
f 6//6 114//6 113//6
f 113//7 112//7 5//7
f 117//8 7//8 115//8
f 115//9 116//9 117//9
f 9//10 117//10 116//10
f 116//11 115//11 8//11
f 120//12 12//12 118//12
f 118//12 119//12 120//12
f 10//13 120//13 119//13
f 119//14 118//14 11//14
f 123//15 15//15 121//15
f 121//16 122//16 123//16
f 13//16 123//16 122//16
f 122//17 121//17 14//17
f 126//18 18//18 124//18
f 124//19 125//19 126//19
f 16//20 126//20 125//20
f 125//21 124//21 17//21
f 129//22 19//22 127//22
f 127//23 128//23 129//23
f 21//24 129//24 128//24
f 128//25 127//25 20//25
f 132//26 22//26 130//26
f 130//27 131//27 132//27
f 24//28 132//28 131//28
f 131//29 130//29 23//29
f 135//30 25//30 133//30
f 133//31 134//31 135//31
f 27//32 135//32 134//32
f 134//33 133//33 26//33
f 138//34 30//34 136//34
f 136//35 137//35 138//35
f 28//36 138//36 137//36
f 137//37 136//37 29//37
f 141//38 33//38 139//38
f 139//38 140//38 141//38
f 31//39 141//39 140//39
f 140//40 139//40 32//40
f 144//41 36//41 142//41
f 142//42 143//42 144//42
f 34//43 144//43 143//43
f 143//44 142//44 35//44
f 147//45 37//45 145//45
f 145//45 146//45 147//45
f 39//46 147//46 146//46
f 146//45 145//45 38//45
f 150//47 40//47 148//47
f 148//48 149//48 150//48
f 42//49 150//49 149//49
f 149//50 148//50 41//50
f 153//51 43//51 151//51
f 151//52 152//52 153//52
f 45//53 153//53 152//53
f 152//54 151//54 44//54
f 156//55 46//55 154//55
f 154//55 155//55 156//55
f 48//56 156//56 155//56
f 155//57 154//57 47//57
f 159//58 49//58 157//58
f 157//59 158//59 159//59
f 51//60 159//60 158//60
f 158//61 157//61 50//61
f 162//62 52//62 160//62
f 160//63 161//63 162//63
f 54//64 162//64 161//64
f 161//65 160//65 53//65
f 165//66 57//66 163//66
f 163//67 164//67 165//67
f 55//67 165//67 164//67
f 164//67 163//67 56//67
f 168//68 60//68 166//68
f 166//69 167//69 168//69
f 58//70 168//70 167//70
f 167//71 166//71 59//71
f 171//72 63//72 169//72
f 169//73 170//73 171//73
f 61//74 171//74 170//74
f 170//75 169//75 62//75
f 174//76 66//76 172//76
f 172//77 173//77 174//77
f 64//77 174//77 173//77
f 173//78 172//78 65//78
f 177//79 69//79 175//79
f 175//80 176//80 177//80
f 67//81 177//81 176//81
f 176//82 175//82 68//82
f 180//83 72//83 178//83
f 178//84 179//84 180//84
f 70//85 180//85 179//85
f 179//86 178//86 71//86
f 183//87 73//87 181//87
f 181//87 182//87 183//87
f 75//87 183//87 182//87
f 182//87 181//87 74//87
f 187//88 76//88 185//88
f 185//89 186//89 187//89
f 78//89 187//89 186//89
f 186//89 185//89 77//89
f 191//90 79//90 189//90
f 189//91 190//91 191//91
f 81//91 191//91 190//91
f 190//92 189//92 80//92
f 194//93 84//93 192//93
f 192//94 193//94 194//94
f 82//94 194//94 193//94
f 193//94 192//94 83//94
f 198//95 87//95 197//95
f 197//96 196//96 198//96
f 85//97 198//97 196//97
f 196//96 197//96 86//96
f 202//98 90//98 201//98
f 201//98 200//98 202//98
f 88//98 202//98 200//98
f 200//99 201//99 89//99
f 205//100 91//100 203//100
f 203//100 204//100 205//100
f 93//101 205//101 204//101
f 204//100 203//100 92//100
f 209//102 94//102 207//102
f 207//103 208//103 209//103
f 96//104 209//104 208//104
f 208//103 207//103 95//103
f 213//105 97//105 211//105
f 211//106 212//106 213//106
f 99//107 213//107 212//107
f 212//108 211//108 98//108
f 216//109 102//109 214//109
f 214//110 215//110 216//110
f 100//110 216//110 215//110
f 215//110 214//110 101//110
f 220//111 105//111 219//111
f 219//112 218//112 220//112
f 103//113 220//113 218//113
f 218//112 219//112 104//112
f 224//114 108//114 223//114
f 223//115 222//115 224//115
f 106//116 224//116 222//116
f 222//117 223//117 107//117
usemtl (null)
f 229//118 51//118 227//118
f 227//118 160//118 229//118
f 52//118 229//118 160//118
f 160//119 227//119 53//119
f 230//120 48//120 228//120
f 228//121 157//121 230//121
f 49//122 230//122 157//122
f 157//123 228//123 50//123
f 225//124 12//124 231//124
f 231//125 122//125 225//125
f 14//126 225//126 122//126
f 122//127 231//127 13//127
f 226//128 15//128 232//128
f 232//129 125//129 226//129
f 17//130 226//130 125//130
f 125//129 232//129 16//129
f 233//131 39//131 234//131
f 234//132 148//132 233//132
f 40//133 233//133 148//133
f 148//134 234//134 41//134
f 235//135 42//135 236//135
f 236//136 151//136 235//136
f 43//136 235//136 151//136
f 151//137 236//137 44//137
f 237//138 24//138 238//138
f 238//138 133//138 237//138
f 25//138 237//138 133//138
f 133//138 238//138 26//138
f 239//139 21//139 240//139
f 240//139 130//139 239//139
f 22//140 239//140 130//140
f 130//141 240//141 23//141
f 241//142 93//142 206//142
f 206//143 207//143 241//143
f 94//144 241//144 207//144
f 207//145 206//145 95//145
f 242//146 96//146 210//146
f 210//147 211//147 242//147
f 97//148 242//148 211//148
f 211//147 210//147 98//147
f 221//149 105//149 243//149
f 243//150 222//150 221//150
f 107//150 221//150 222//150
f 222//151 243//151 106//151
f 217//152 102//152 244//152
f 244//153 218//153 217//153
f 104//154 217//154 218//154
f 218//155 244//155 103//155
f 246//156 57//156 245//156
f 245//157 167//157 246//157
f 59//71 246//71 167//71
f 167//158 245//158 58//158
f 248//159 60//159 247//159
f 247//160 170//160 248//160
f 62//161 248//161 170//161
f 170//160 247//160 61//160
f 250//162 30//162 249//162
f 249//163 140//163 250//163
f 32//164 250//164 140//164
f 140//165 249//165 31//165
f 252//166 33//166 251//166
f 251//167 143//167 252//167
f 35//167 252//167 143//167
f 143//167 251//167 34//167
f 254//168 66//168 253//168
f 253//168 176//168 254//168
f 68//169 254//169 176//169
f 176//168 253//168 67//168
f 256//170 69//170 255//170
f 255//171 179//171 256//171
f 71//172 256//172 179//172
f 179//171 255//171 70//171
f 257//173 6//173 258//173
f 258//174 115//174 257//174
f 7//174 257//174 115//174
f 115//175 258//175 8//175
f 259//176 3//176 260//176
f 260//177 112//177 259//177
f 4//178 259//178 112//178
f 112//179 260//179 5//179
f 261//180 78//180 188//180
f 188//181 189//181 261//181
f 79//182 261//182 189//182
f 189//181 188//181 80//181
f 262//183 75//183 184//183
f 184//184 185//184 262//184
f 76//184 262//184 185//184
f 185//185 184//185 77//185
f 199//186 87//186 263//186
f 263//187 200//187 199//187
f 89//187 199//187 200//187
f 200//188 263//188 88//188
f 195//189 84//189 264//189
f 264//189 196//189 195//189
f 86//190 195//190 196//190
f 196//189 264//189 85//189
